<?xml version="1.0" encoding="UTF-8"?>
<ffprobe>
    <streams>
        <stream index="0" codec_name="epg" codec_long_name="Electronic Program Guide" codec_type="data" codec_tag_string="[0][0][0][0]" codec_tag="0x0000" id="0x12" r_frame_rate="0/0" avg_frame_rate="0/0" time_base="1/90000" start_pts="3274643578" start_time="36384.928644" duration_ts="675059400" duration="7500.660000">
            <disposition default="0" dub="0" original="0" comment="0" lyrics="0" karaoke="0" forced="0" hearing_impaired="0" visual_impaired="0" clean_effects="0" attached_pic="0" timed_thumbnails="0"/>
        </stream>
        <stream index="1" codec_name="dvb_subtitle" codec_long_name="DVB subtitles" codec_type="subtitle" codec_time_base="0/1" codec_tag_string="[6][0][0][0]" codec_tag="0x0006" id="0x21c" r_frame_rate="0/0" avg_frame_rate="0/0" time_base="1/90000" start_pts="3274810978" start_time="36386.788644">
            <disposition default="0" dub="0" original="0" comment="0" lyrics="0" karaoke="0" forced="0" hearing_impaired="1" visual_impaired="0" clean_effects="0" attached_pic="0" timed_thumbnails="0"/>
            <tag key="language" value="deu"/>
        </stream>
        <stream index="2" codec_name="h264" codec_long_name="H.264 / AVC / MPEG-4 AVC / MPEG-4 part 10" profile="High" codec_type="video" codec_time_base="1/100" codec_tag_string="[27][0][0][0]" codec_tag="0x001b" width="1280" height="720" coded_width="1280" coded_height="720" closed_captions="0" has_b_frames="3" sample_aspect_ratio="1:1" display_aspect_ratio="16:9" pix_fmt="yuv420p" level="40" color_range="tv" color_space="bt709" color_transfer="bt709" color_primaries="bt709" chroma_location="left" field_order="progressive" refs="1" is_avc="false" nal_length_size="0" id="0x21d" r_frame_rate="50/1" avg_frame_rate="50/1" time_base="1/90000" start_pts="3274697578" start_time="36385.528644" duration_ts="675005400" duration="7500.060000" bits_per_raw_sample="8">
            <disposition default="0" dub="0" original="0" comment="0" lyrics="0" karaoke="0" forced="0" hearing_impaired="0" visual_impaired="0" clean_effects="0" attached_pic="0" timed_thumbnails="0"/>
        </stream>
        <stream index="3" codec_name="ac3" codec_long_name="ATSC A/52A (AC-3)" codec_type="audio" codec_time_base="1/48000" codec_tag_string="[6][0][0][0]" codec_tag="0x0006" sample_fmt="fltp" sample_rate="48000" channels="2" channel_layout="stereo" bits_per_sample="0" dmix_mode="-1" ltrt_cmixlev="-1.000000" ltrt_surmixlev="-1.000000" loro_cmixlev="-1.000000" loro_surmixlev="-1.000000" id="0x21e" r_frame_rate="0/0" avg_frame_rate="0/0" time_base="1/90000" start_pts="3274643578" start_time="36384.928644" duration_ts="674994240" duration="7499.936000" bit_rate="448000">
            <disposition default="0" dub="0" original="0" comment="0" lyrics="0" karaoke="0" forced="0" hearing_impaired="0" visual_impaired="0" clean_effects="0" attached_pic="0" timed_thumbnails="0"/>
            <tag key="language" value="deu"/>
        </stream>
        <stream index="4" codec_name="ac3" codec_long_name="ATSC A/52A (AC-3)" codec_type="audio" codec_time_base="1/48000" codec_tag_string="[6][0][0][0]" codec_tag="0x0006" sample_fmt="fltp" sample_rate="48000" channels="2" channel_layout="stereo" bits_per_sample="0" dmix_mode="-1" ltrt_cmixlev="-1.000000" ltrt_surmixlev="-1.000000" loro_cmixlev="-1.000000" loro_surmixlev="-1.000000" id="0x21f" r_frame_rate="0/0" avg_frame_rate="0/0" time_base="1/90000" start_pts="3274657978" start_time="36385.088644" duration_ts="674988480" duration="7499.872000" bit_rate="192000">
            <disposition default="0" dub="0" original="0" comment="0" lyrics="0" karaoke="0" forced="0" hearing_impaired="0" visual_impaired="1" clean_effects="0" attached_pic="0" timed_thumbnails="0"/>
            <tag key="language" value="deu"/>
        </stream>
        <stream index="5" codec_name="dvb_teletext" codec_long_name="DVB teletext" codec_type="subtitle" codec_time_base="0/1" codec_tag_string="[6][0][0][0]" codec_tag="0x0006" width="492" height="250" id="0x220" r_frame_rate="0/0" avg_frame_rate="0/0" time_base="1/90000" start_pts="3274643578" start_time="36384.928644" duration_ts="674998200" duration="7499.980000">
            <disposition default="0" dub="0" original="0" comment="0" lyrics="0" karaoke="0" forced="0" hearing_impaired="0" visual_impaired="0" clean_effects="0" attached_pic="0" timed_thumbnails="0"/>
            <tag key="language" value="deu"/>
        </stream>
        <stream index="6" codec_name="ac3" codec_long_name="ATSC A/52A (AC-3)" codec_type="audio" codec_time_base="1/48000" codec_tag_string="[6][0][0][0]" codec_tag="0x0006" sample_fmt="fltp" sample_rate="48000" channels="2" channel_layout="stereo" bits_per_sample="0" dmix_mode="-1" ltrt_cmixlev="-1.000000" ltrt_surmixlev="-1.000000" loro_cmixlev="-1.000000" loro_surmixlev="-1.000000" id="0x223" r_frame_rate="0/0" avg_frame_rate="0/0" time_base="1/90000" start_pts="3274657978" start_time="36385.088644" duration_ts="674988480" duration="7499.872000" bit_rate="192000">
            <disposition default="0" dub="0" original="0" comment="0" lyrics="0" karaoke="0" forced="0" hearing_impaired="0" visual_impaired="0" clean_effects="0" attached_pic="0" timed_thumbnails="0"/>
            <tag key="language" value="mul"/>
        </stream>
    </streams>

    <format filename="crimson_tide_-_in_tiefster_gefahr_(1995).250001.ts" nb_streams="7" nb_programs="1" format_name="mpegts" format_long_name="MPEG-TS (MPEG-2 Transport Stream)" start_time="36384.928644" duration="7500.660000" size="9993434972" bit_rate="10658726" probe_score="50"/>
</ffprobe>
